<svg xmlns="http://www.w3.org/2000/svg" width="1843" height="41" viewBox="0 0 1843 41" fill="none"><path d="M1842.27 20.7678C1843.24 19.7915 1843.24 18.2085 1842.27 17.2322L1826.36 1.32233C1825.38 0.34602 1823.8 0.34602 1822.82 1.32233C1821.85 2.29864 1821.85 3.88155 1822.82 4.85786L1836.96 19L1822.82 33.1421C1821.85 34.1184 1821.85 35.7014 1822.82 36.6777C1823.8 37.654 1825.38 37.654 1826.36 36.6777L1842.27 20.7678ZM1.23223 20.2322C0.255922 21.2085 0.255922 22.7915 1.23223 23.7678L17.1421 39.6777C18.1184 40.654 19.7014 40.654 20.6777 39.6777C21.654 38.7014 21.654 37.1184 20.6777 36.1421L6.53553 22L20.6777 7.85786C21.654 6.88155 21.654 5.29864 20.6777 4.32233C19.7014 3.34602 18.1184 3.34602 17.1421 4.32233L1.23223 20.2322ZM1798.5 21.5H1840.5V16.5H1798.5V21.5ZM41 19.5H3V24.5H41V19.5Z" fill="#1C4130"></path></svg>